<svg width="720" height="745" viewBox="0 0 720 745" fill="none" xmlns="http://www.w3.org/2000/svg">
<path d="M102.819 633.837C-36.1736 487.428 -33.9128 251.923 107.867 107.804C249.644 -36.3211 477.232 -34.4642 616.224 111.945C755.213 258.349 752.957 493.85 611.181 637.975C469.4 782.099 241.807 780.246 102.819 633.837V633.837ZM485.504 244.824C417.294 172.973 305.592 172.071 236.019 242.792C166.44 313.52 165.328 429.108 233.534 500.958C301.744 572.809 413.451 573.707 483.025 502.982C552.599 432.261 553.711 316.67 485.504 244.824V244.824Z" fill="url(#paint0_linear_511_4340)"/>
<defs>
<linearGradient id="paint0_linear_511_4340" x1="612.273" y1="774.7" x2="28.0731" y2="11.8844" gradientUnits="userSpaceOnUse">
<stop stop-color="#1F4C5E" stop-opacity="0"/>
<stop offset="1" stop-color="#5CC540"/>
</linearGradient>
</defs>
</svg>
