<svg width="123" height="71" viewBox="0 0 123 71" fill="none" xmlns="http://www.w3.org/2000/svg">
<g clip-path="url(#clip0_562_131)">
<path d="M9.35556 42.361C2.76667 42.361 0 37.7132 0 33.1319V0H8V32.6449C8 34.5704 8.8 35.5553 10.8333 35.5553H13.9111V42.372H9.35556V42.361Z" fill="white"/>
<path d="M36.6009 19.753C35.7342 17.8275 33.9565 16.411 31.2454 16.411C28.5342 16.411 26.7565 17.8386 25.8898 19.753C25.4009 20.926 25.212 21.8002 25.1454 23.2278H37.3342C37.2676 21.8002 37.0898 20.9371 36.5898 19.753M25.1342 28.7387C25.1342 32.8884 27.6565 35.9206 32.1565 35.9206C35.6676 35.9206 37.3898 34.9246 39.4231 32.8884L44.2898 37.6579C41.0231 40.9446 37.8898 42.7373 32.1009 42.7373C24.5231 42.7373 17.2676 39.2625 17.2676 26.1935C17.2676 15.6586 22.9342 9.71606 31.2454 9.71606C40.1676 9.71606 45.2231 16.2893 45.2231 25.1422V28.7387H25.1454H25.1342Z" fill="white"/>
<path d="M64.6547 42.361H58.3658L46.5547 10.0923H54.988L61.5102 30.0334L67.9769 10.0923H76.4102L64.6547 42.361Z" fill="white"/>
<path d="M88.4668 10.0923H80.4668V42.361H88.4668V10.0923Z" fill="white"/>
<path d="M4.02144 52.6747L5.36589 56.6253H2.63255L4.01033 52.6747H4.02144ZM3.45477 50.6606L0.199219 59.5688H1.63255L2.24366 57.7761H5.73255L6.34366 59.5688H7.777L4.53255 50.6606H3.45477Z" fill="white"/>
<path d="M10.3991 51.8779V54.5891H14.0769V55.8064H10.3991V59.5688H9.05469V50.6606H14.7102V51.8779H10.3991Z" fill="white"/>
<path d="M17.5222 51.8779V54.5891H21.2V55.8064H17.5222V59.5688H16.1777V50.6606H21.8333V51.8779H17.5222Z" fill="white"/>
<path d="M25.6224 52.6747L24.2446 56.6253H26.9668L25.6224 52.6747ZM27.9446 59.5688L27.3335 57.7761H23.8335L23.2224 59.5688H21.7891L25.0335 50.6606H26.1113L29.3557 59.5688H27.9224H27.9446Z" fill="white"/>
<path d="M32.0105 50.6606H30.666V59.5688H32.0105V50.6606Z" fill="white"/>
<path d="M37.388 51.8779H35.3991V54.6666H37.388C38.288 54.6666 38.888 54.1575 38.888 53.2833C38.888 52.4091 38.2769 51.8779 37.388 51.8779ZM38.9436 59.5688L37.0769 55.8174H35.3991V59.5688H34.0547V50.6606H37.488C39.1658 50.6606 40.2325 51.7451 40.2325 53.2612C40.2325 54.5338 39.4658 55.3527 38.4658 55.6293L40.4991 59.5688H38.9325H38.9436Z" fill="white"/>
<path d="M42.0215 59.5688V50.6606H47.677V51.8779H43.3548V54.4784H47.0437V55.6736H43.3548V58.3516H47.677V59.5688H42.0215Z" fill="white"/>
<path d="M51.9888 59.6463C50.6555 59.6463 49.6999 59.3364 48.8555 58.4733L49.7555 57.588C50.3999 58.2409 51.111 58.4401 52.0221 58.4401C53.1777 58.4401 53.8444 57.9421 53.8444 57.079C53.8444 56.6917 53.7332 56.3707 53.4999 56.1494C53.2777 55.9392 53.0555 55.8506 52.5332 55.7732L51.4888 55.6182C50.7666 55.5186 50.1999 55.2641 49.811 54.91C49.3777 54.5006 49.1666 53.9362 49.1666 53.2058C49.1666 51.6566 50.2888 50.5942 52.1221 50.5942C53.2888 50.5942 54.111 50.893 54.8666 51.6123L54.011 52.4644C53.4666 51.9332 52.8332 51.7783 52.0777 51.7783C51.0332 51.7783 50.4666 52.3759 50.4666 53.1616C50.4666 53.4825 50.5666 53.7702 50.7999 53.9915C51.0221 54.1907 51.3888 54.3456 51.7999 54.401L52.811 54.5559C53.6332 54.6776 54.0888 54.8768 54.4666 55.2199C54.9555 55.6514 55.1888 56.2822 55.1888 57.0458C55.1888 58.6835 53.8555 59.6574 51.9999 59.6574" fill="white"/>
<path d="M62.2895 55.7067V57.8093H61.1006V55.7067H59.0117V54.5226H61.1006V52.4312H62.2895V54.5226H64.3784V55.7067H62.2895Z" fill="#5CC540"/>
<path d="M0.478516 62.0144V63.2317H2.91185V70.9226H4.25629V63.2317H6.68963V62.0144H0.478516Z" fill="white"/>
<path d="M8.22266 62.0144V70.9226H13.8782V69.7053H9.5671V67.0273H13.2449V65.8322H9.5671V63.2317H13.8782V62.0144H8.22266Z" fill="white"/>
<path d="M18.377 71.0001C17.4548 71.0001 16.6548 70.657 16.0548 70.0484C15.1881 69.1742 15.1992 68.1893 15.1992 66.474C15.1992 64.7588 15.1992 63.7739 16.0548 62.8997C16.6659 62.291 17.4659 61.948 18.377 61.948C20.0103 61.948 21.2214 62.9107 21.5326 64.6924H20.1659C19.9548 63.785 19.3548 63.1653 18.377 63.1653C17.8548 63.1653 17.377 63.3645 17.0659 63.7075C16.6326 64.1833 16.5326 64.6924 16.5326 66.4851C16.5326 68.2778 16.6326 68.7868 17.0659 69.2627C17.377 69.5947 17.8437 69.7939 18.377 69.7939C19.3548 69.7939 19.9659 69.1742 20.177 68.2667H21.5326C21.2326 70.0373 19.977 71.0111 18.377 71.0111" fill="white"/>
<path d="M28.1443 62.0144V65.8211H24.5554V62.0144H23.2109V70.9226H24.5554V67.0273H28.1443V70.9226H29.4887V62.0144H28.1443Z" fill="white"/>
<path d="M36.9882 62.0144V68.2667L32.8993 62.0144H31.666V70.9226H33.0105V64.6592L37.0993 70.9226H38.3327V62.0144H36.9882Z" fill="white"/>
<path d="M44.7565 63.7075C44.4454 63.3645 43.9565 63.1542 43.4343 63.1542C42.912 63.1542 42.4231 63.3645 42.112 63.7075C41.6787 64.1833 41.5898 64.6813 41.5898 66.474C41.5898 68.2667 41.6787 68.7647 42.112 69.2405C42.4231 69.5836 42.912 69.7939 43.4343 69.7939C43.9565 69.7939 44.4454 69.5836 44.7565 69.2405C45.1898 68.7647 45.2787 68.2667 45.2787 66.474C45.2787 64.6813 45.1898 64.1833 44.7565 63.7075ZM45.7787 70.0484C45.1676 70.657 44.3898 71.0001 43.4454 71.0001C42.5009 71.0001 41.7342 70.657 41.1231 70.0484C40.2565 69.1742 40.2676 68.1893 40.2676 66.474C40.2676 64.7588 40.2565 63.7739 41.1231 62.8997C41.7342 62.291 42.5009 61.948 43.4454 61.948C44.3898 61.948 45.1787 62.28 45.7787 62.8997C46.6454 63.7739 46.6231 64.7588 46.6231 66.474C46.6231 68.1893 46.6454 69.1742 45.7787 70.0484Z" fill="white"/>
<path d="M48.5215 62.0144V70.9226H54.1326V69.7053H49.8659V62.0144H48.5215Z" fill="white"/>
<path d="M59.7662 63.7075C59.4551 63.3645 58.9662 63.1542 58.444 63.1542C57.9218 63.1542 57.4329 63.3645 57.1218 63.7075C56.6885 64.1833 56.5996 64.6813 56.5996 66.474C56.5996 68.2667 56.6885 68.7647 57.1218 69.2405C57.4329 69.5836 57.9218 69.7939 58.444 69.7939C58.9662 69.7939 59.4551 69.5836 59.7662 69.2405C60.1996 68.7647 60.2885 68.2667 60.2885 66.474C60.2885 64.6813 60.1996 64.1833 59.7662 63.7075ZM60.7885 70.0484C60.1774 70.657 59.3996 71.0001 58.4551 71.0001C57.5107 71.0001 56.744 70.657 56.1329 70.0484C55.2662 69.1742 55.2774 68.1893 55.2774 66.474C55.2774 64.7588 55.2662 63.7739 56.1329 62.8997C56.744 62.291 57.5107 61.948 58.4551 61.948C59.3996 61.948 60.1885 62.28 60.7885 62.8997C61.6662 63.7739 61.6329 64.7588 61.6329 66.474C61.6329 68.1893 61.6551 69.1742 60.7885 70.0484Z" fill="white"/>
<path d="M68.8767 69.982C68.2101 70.6902 67.3767 71.0001 66.4434 71.0001C65.5101 71.0001 64.7323 70.657 64.1212 70.0484C63.2545 69.1742 63.2656 68.1893 63.2656 66.474C63.2656 64.7588 63.2545 63.7739 64.1212 62.8997C64.7323 62.291 65.499 61.948 66.4434 61.948C68.3212 61.948 69.4101 63.1874 69.6656 64.7145H68.3101C68.0879 63.7407 67.4434 63.1653 66.4434 63.1653C65.9212 63.1653 65.4434 63.3755 65.1434 63.7186C64.7101 64.1944 64.6101 64.6924 64.6101 66.4851C64.6101 68.2778 64.7101 68.7868 65.1434 69.2627C65.4545 69.6057 65.9212 69.8049 66.4434 69.8049C67.0323 69.8049 67.5434 69.5836 67.8879 69.1852C68.2101 68.809 68.3323 68.3553 68.3323 67.7798V67.2819H66.4434V66.131H69.6767V67.4921C69.6767 68.643 69.4656 69.3844 68.8767 70.0041" fill="white"/>
<path d="M72.9226 62.0144H71.5781V70.9226H72.9226V62.0144Z" fill="white"/>
<path d="M75.0781 62.0144V70.9226H80.7448V69.7053H76.4226V67.0273H80.1115V65.8322H76.4226V63.2317H80.7448V62.0144H75.0781Z" fill="white"/>
<path d="M85.1665 71.0001C83.8332 71.0001 82.8776 70.6902 82.0332 69.827L82.9332 68.9418C83.5776 69.5947 84.2888 69.7939 85.1999 69.7939C86.3554 69.7939 87.0221 69.2959 87.0221 68.4327C87.0221 68.0454 86.911 67.7245 86.6776 67.5032C86.4554 67.2929 86.2332 67.2044 85.711 67.1269L84.6665 66.972C83.9443 66.8724 83.3776 66.6179 82.9888 66.2638C82.5554 65.8543 82.3443 65.29 82.3443 64.5596C82.3443 63.0103 83.4665 61.948 85.2999 61.948C86.4665 61.948 87.2888 62.2468 88.0443 62.9661L87.1888 63.8182C86.6443 63.2981 86.011 63.1321 85.2665 63.1321C84.2221 63.1321 83.6554 63.7296 83.6554 64.5153C83.6554 64.8362 83.7554 65.124 83.9888 65.3453C84.211 65.5445 84.5776 65.6994 84.9776 65.7547L85.9776 65.9097C86.7999 66.0314 87.2554 66.2306 87.6332 66.5736C88.1221 67.0052 88.3554 67.636 88.3554 68.3995C88.3554 70.0373 87.0221 71.0111 85.1776 71.0111" fill="white"/>
<path d="M107.2 23.7146C102.911 23.7146 99.4442 20.2177 99.4442 15.902C99.4442 11.5862 102.922 8.08931 107.2 8.08931C111.478 8.08931 114.955 11.5862 114.955 15.902C114.955 20.2177 111.478 23.7146 107.2 23.7146ZM107.2 0C98.4665 0 91.3887 7.12656 91.3887 15.913C91.3887 24.6995 98.4665 31.815 107.2 31.815C115.933 31.815 123.011 24.6884 123.011 15.913C123.011 7.13762 115.922 0 107.2 0Z" fill="#5CC540"/>
</g>
<defs>
<clipPath id="clip0_562_131">
<rect width="123" height="71" fill="white"/>
</clipPath>
</defs>
</svg>
